<svg xmlns="http://www.w3.org/2000/svg" width="152" height="51" viewBox="0 0 152 51" fill="none"><path d="M67.1348 34.5117V13.2717H82.2548V17.2617H71.4248V22.7517H80.5748V26.7117H71.4248V34.5117H67.1348ZM91.1378 34.7217C89.4778 34.7217 88.0678 34.3917 86.9078 33.7317C85.7478 33.0717 84.8578 32.1417 84.2378 30.9417C83.6178 29.7217 83.3078 28.3017 83.3078 26.6817C83.3078 25.0417 83.6278 23.6117 84.2678 22.3917C84.9078 21.1517 85.8078 20.1817 86.9678 19.4817C88.1478 18.7817 89.5378 18.4317 91.1378 18.4317C92.3378 18.4317 93.3878 18.6317 94.2878 19.0317C95.2078 19.4317 95.9778 19.9917 96.5978 20.7117C97.2378 21.4317 97.7078 22.2717 98.0078 23.2317C98.3278 24.1717 98.4778 25.1917 98.4578 26.2917C98.4578 26.5717 98.4478 26.8417 98.4278 27.1017C98.4078 27.3617 98.3678 27.6217 98.3078 27.8817H87.4778C87.5378 28.4817 87.7078 29.0317 87.9878 29.5317C88.2678 30.0317 88.6578 30.4317 89.1578 30.7317C89.6778 31.0117 90.3178 31.1517 91.0778 31.1517C91.5778 31.1517 92.0378 31.1017 92.4578 31.0017C92.8778 30.8817 93.2378 30.7017 93.5378 30.4617C93.8378 30.2217 94.0478 29.9417 94.1678 29.6217H98.3078C98.0478 30.8017 97.5578 31.7717 96.8378 32.5317C96.1378 33.2917 95.2878 33.8517 94.2878 34.2117C93.2878 34.5517 92.2378 34.7217 91.1378 34.7217ZM87.5678 24.9417H94.4378C94.4178 24.4017 94.2778 23.9017 94.0178 23.4417C93.7778 22.9617 93.4078 22.5817 92.9078 22.3017C92.4278 22.0017 91.8078 21.8517 91.0478 21.8517C90.2878 21.8517 89.6478 22.0017 89.1278 22.3017C88.6278 22.6017 88.2478 22.9917 87.9878 23.4717C87.7478 23.9317 87.6078 24.4217 87.5678 24.9417ZM101.164 34.5117V18.7017H104.944L105.214 20.5917C105.614 19.9917 106.064 19.5417 106.564 19.2417C107.064 18.9217 107.584 18.7117 108.124 18.6117C108.664 18.4917 109.214 18.4317 109.774 18.4317C110.034 18.4317 110.274 18.4417 110.494 18.4617C110.714 18.4617 110.874 18.4617 110.974 18.4617V22.5117H109.984C109.044 22.5117 108.224 22.6717 107.524 22.9917C106.824 23.3117 106.284 23.8117 105.904 24.4917C105.544 25.1717 105.364 26.0417 105.364 27.1017V34.5117H101.164ZM112.941 34.5117V13.2717H117.141V34.5117H112.941ZM120.47 34.5117V18.7017H124.67V34.5117H120.47ZM122.57 17.1117C121.79 17.1117 121.16 16.8817 120.68 16.4217C120.2 15.9417 119.96 15.3317 119.96 14.5917C119.96 13.8117 120.21 13.1817 120.71 12.7017C121.21 12.2217 121.84 11.9817 122.6 11.9817C123.3 11.9817 123.9 12.2217 124.4 12.7017C124.92 13.1617 125.18 13.7817 125.18 14.5617C125.18 15.3217 124.93 15.9417 124.43 16.4217C123.95 16.8817 123.33 17.1117 122.57 17.1117ZM126.53 34.5117L132.05 26.4417L126.8 18.7017H131.69L134.81 23.6817L137.87 18.7017H142.61L137.33 26.5317L142.97 34.5117H138.08L134.63 29.3217L131.21 34.5117H126.53Z" fill="white"></path><path d="M147.367 34.9017C146.647 34.9017 146.037 34.6817 145.537 34.2417C145.037 33.8017 144.787 33.1717 144.787 32.3517C144.787 31.5117 145.037 30.8517 145.537 30.3717C146.057 29.8917 146.667 29.6517 147.367 29.6517C148.067 29.6517 148.667 29.8917 149.167 30.3717C149.667 30.8317 149.917 31.4817 149.917 32.3217C149.917 33.1617 149.667 33.8017 149.167 34.2417C148.667 34.6817 148.067 34.9017 147.367 34.9017Z" fill="#D8E4EA"></path><path d="M22.3886 0.0117188C10.0236 0.0117188 0 10.0354 0 22.4005C0 34.7656 10.0236 44.7893 22.3886 44.7893C27.5998 44.7893 32.3913 43.0038 36.1959 40.0179C36.1245 39.5752 35.9917 39.2068 35.7864 38.9311C35.3414 38.3325 34.4534 38.0023 33.1472 37.9493C27.8762 37.7356 26.8399 35.6345 26.7717 31.8324C26.7623 31.2922 26.6652 30.8729 26.4765 30.5615C26.1052 30.7805 25.7563 30.8949 25.4164 30.9104C25.3803 30.9119 25.3464 30.9126 25.3124 30.9126C24.9206 30.9126 24.5309 30.8109 24.1729 30.6167C23.0147 31.3038 21.9166 31.6516 20.9067 31.6516C19.9126 31.6516 18.4837 31.3139 17.3247 29.7034C15.7583 27.6777 10.6395 20.7771 10.8542 17.4509C11.0599 14.2633 13.9588 12.8113 16.5655 12.8113C17.4297 12.8113 18.2758 12.9636 19.0119 13.2515C20.5711 13.8617 29.7258 18.7846 30.3959 21.2999C30.6838 22.3774 30.3814 23.6945 29.497 25.2168C29.6165 25.3824 29.7067 25.5553 29.7666 25.7335C29.894 26.1153 29.8748 26.4992 29.7045 26.9272C30.774 28.115 31.4008 29.7547 31.5693 31.8046C31.6263 32.5035 31.6725 32.9387 31.832 33.0845C31.9987 33.2371 32.4606 33.2793 33.2252 33.3493C33.8988 33.411 34.7371 33.4875 35.7218 33.7044C37.5447 34.106 38.9433 35.0716 39.7815 36.4937C42.9038 32.645 44.7776 27.7423 44.7776 22.4001C44.7772 10.0354 34.7537 0.0117188 22.3886 0.0117188ZM34.1749 19.5376C31.8825 19.5376 30.0242 17.6793 30.0242 15.3869C30.0242 13.0945 31.8825 11.2362 34.1749 11.2362C36.4672 11.2362 38.3255 13.0945 38.3255 15.3869C38.3255 17.679 36.4672 19.5376 34.1749 19.5376Z" fill="#D8E4EA"></path><path d="M44.8711 49.3303C44.7549 48.9821 41.6796 49.9686 39.8804 48.8078C38.0813 47.6474 37.7331 45.0356 38.7777 41.9602C39.8224 38.8845 38.8358 35.8668 35.4119 35.1127C31.9879 34.3581 30.4212 35.4609 30.1311 31.9211C29.9178 29.3176 28.888 27.9096 27.8503 27.2071C28.2089 26.7286 28.4431 26.3252 28.3987 26.1924C28.3255 25.9745 27.9914 25.7003 27.5905 25.5C28.6188 24.0779 29.2535 22.6133 29.002 21.6708C28.6091 20.1968 20.7469 15.4796 18.4866 14.5948C16.2264 13.7104 12.4918 14.4967 12.2955 17.5432C12.0988 20.5897 18.4866 28.8449 18.4866 28.8449C20.0776 31.0724 22.3768 30.2085 24.2899 28.8085C24.5194 29.1239 24.8867 29.4883 25.3519 29.4674C25.6156 29.4555 26.0443 29.1459 26.4979 28.7219C27.2607 29.0838 28.1822 29.9094 28.2161 31.8056C28.2742 35.0553 28.9126 36.3319 33.2068 36.5062C37.5011 36.6801 38.3718 39.4658 37.2691 43.7601C36.1664 48.0544 39.7643 51.1301 44.349 49.6211C44.3486 49.6204 44.9873 49.6785 44.8711 49.3303Z" fill="white"></path></svg>