<svg xmlns="http://www.w3.org/2000/svg" width="152" height="50" viewBox="0 0 152 50" fill="none"><path d="M67.1348 34.5V13.26H82.2548V17.25H71.4248V22.74H80.5748V26.7H71.4248V34.5H67.1348ZM91.1378 34.71C89.4778 34.71 88.0678 34.38 86.9078 33.72C85.7478 33.06 84.8578 32.13 84.2378 30.93C83.6178 29.71 83.3078 28.29 83.3078 26.67C83.3078 25.03 83.6278 23.6 84.2678 22.38C84.9078 21.14 85.8078 20.17 86.9678 19.47C88.1478 18.77 89.5378 18.42 91.1378 18.42C92.3378 18.42 93.3878 18.62 94.2878 19.02C95.2078 19.42 95.9778 19.98 96.5978 20.7C97.2378 21.42 97.7078 22.26 98.0078 23.22C98.3278 24.16 98.4778 25.18 98.4578 26.28C98.4578 26.56 98.4478 26.83 98.4278 27.09C98.4078 27.35 98.3678 27.61 98.3078 27.87H87.4778C87.5378 28.47 87.7078 29.02 87.9878 29.52C88.2678 30.02 88.6578 30.42 89.1578 30.72C89.6778 31 90.3178 31.14 91.0778 31.14C91.5778 31.14 92.0378 31.09 92.4578 30.99C92.8778 30.87 93.2378 30.69 93.5378 30.45C93.8378 30.21 94.0478 29.93 94.1678 29.61H98.3078C98.0478 30.79 97.5578 31.76 96.8378 32.52C96.1378 33.28 95.2878 33.84 94.2878 34.2C93.2878 34.54 92.2378 34.71 91.1378 34.71ZM87.5678 24.93H94.4378C94.4178 24.39 94.2778 23.89 94.0178 23.43C93.7778 22.95 93.4078 22.57 92.9078 22.29C92.4278 21.99 91.8078 21.84 91.0478 21.84C90.2878 21.84 89.6478 21.99 89.1278 22.29C88.6278 22.59 88.2478 22.98 87.9878 23.46C87.7478 23.92 87.6078 24.41 87.5678 24.93ZM101.164 34.5V18.69H104.944L105.214 20.58C105.614 19.98 106.064 19.53 106.564 19.23C107.064 18.91 107.584 18.7 108.124 18.6C108.664 18.48 109.214 18.42 109.774 18.42C110.034 18.42 110.274 18.43 110.494 18.45C110.714 18.45 110.874 18.45 110.974 18.45V22.5H109.984C109.044 22.5 108.224 22.66 107.524 22.98C106.824 23.3 106.284 23.8 105.904 24.48C105.544 25.16 105.364 26.03 105.364 27.09V34.5H101.164ZM112.941 34.5V13.26H117.141V34.5H112.941ZM120.47 34.5V18.69H124.67V34.5H120.47ZM122.57 17.1C121.79 17.1 121.16 16.87 120.68 16.41C120.2 15.93 119.96 15.32 119.96 14.58C119.96 13.8 120.21 13.17 120.71 12.69C121.21 12.21 121.84 11.97 122.6 11.97C123.3 11.97 123.9 12.21 124.4 12.69C124.92 13.15 125.18 13.77 125.18 14.55C125.18 15.31 124.93 15.93 124.43 16.41C123.95 16.87 123.33 17.1 122.57 17.1ZM126.53 34.5L132.05 26.43L126.8 18.69H131.69L134.81 23.67L137.87 18.69H142.61L137.33 26.52L142.97 34.5H138.08L134.63 29.31L131.21 34.5H126.53Z" fill="#242736"></path><path d="M147.367 34.89C146.647 34.89 146.037 34.67 145.537 34.23C145.037 33.79 144.787 33.16 144.787 32.34C144.787 31.5 145.037 30.84 145.537 30.36C146.057 29.88 146.667 29.64 147.367 29.64C148.067 29.64 148.667 29.88 149.167 30.36C149.667 30.82 149.917 31.47 149.917 32.31C149.917 33.15 149.667 33.79 149.167 34.23C148.667 34.67 148.067 34.89 147.367 34.89Z" fill="#5A4A66"></path><path d="M22.3886 0C10.0236 0 0 10.0237 0 22.3888C0 34.7539 10.0236 44.7775 22.3886 44.7775C27.5998 44.7775 32.3913 42.9921 36.1959 40.0062C36.1245 39.5635 35.9917 39.1951 35.7864 38.9194C35.3414 38.3207 34.4534 37.9906 33.1472 37.9375C27.8762 37.7239 26.8399 35.6228 26.7717 31.8207C26.7623 31.2805 26.6652 30.8612 26.4765 30.5498C26.1052 30.7688 25.7563 30.8832 25.4164 30.8987C25.3803 30.9002 25.3464 30.9009 25.3124 30.9009C24.9206 30.9009 24.5309 30.7991 24.1729 30.605C23.0147 31.292 21.9166 31.6399 20.9067 31.6399C19.9126 31.6399 18.4837 31.3021 17.3247 29.6917C15.7583 27.666 10.6395 20.7654 10.8542 17.4392C11.0599 14.2516 13.9588 12.7996 16.5655 12.7996C17.4297 12.7996 18.2758 12.9518 19.0119 13.2398C20.5711 13.85 29.7258 18.7728 30.3959 21.2882C30.6838 22.3657 30.3814 23.6827 29.497 25.2051C29.6165 25.3707 29.7067 25.5436 29.7666 25.7218C29.894 26.1036 29.8748 26.4875 29.7045 26.9155C30.774 28.1033 31.4008 29.743 31.5693 31.7929C31.6263 32.4918 31.6725 32.927 31.832 33.0728C31.9987 33.2254 32.4606 33.2676 33.2252 33.3376C33.8988 33.3993 34.7371 33.4758 35.7218 33.6927C37.5447 34.0943 38.9433 35.0599 39.7815 36.4819C42.9038 32.6333 44.7776 27.7306 44.7776 22.3884C44.7772 10.0237 34.7537 0 22.3886 0ZM34.1749 19.5259C31.8825 19.5259 30.0242 17.6676 30.0242 15.3752C30.0242 13.0828 31.8825 11.2245 34.1749 11.2245C36.4672 11.2245 38.3255 13.0828 38.3255 15.3752C38.3255 17.6672 36.4672 19.5259 34.1749 19.5259Z" fill="#242736"></path><path d="M44.8711 49.3186C44.7549 48.9704 41.6796 49.9569 39.8804 48.7961C38.0813 47.6356 37.7331 45.0239 38.7777 41.9485C39.8224 38.8727 38.8358 35.8551 35.4119 35.1009C31.9879 34.3464 30.4212 35.4491 30.1311 31.9093C29.9178 29.3059 28.888 27.8979 27.8503 27.1954C28.2089 26.7169 28.4431 26.3135 28.3987 26.1807C28.3255 25.9628 27.9914 25.6885 27.5905 25.4883C28.6188 24.0662 29.2535 22.6016 29.002 21.6591C28.6091 20.1851 20.7469 15.4679 18.4866 14.5831C16.2264 13.6987 12.4918 14.4849 12.2955 17.5315C12.0988 20.578 18.4866 28.8332 18.4866 28.8332C20.0776 31.0607 22.3768 30.1968 24.2899 28.7968C24.5194 29.1121 24.8867 29.4766 25.3519 29.4557C25.6156 29.4437 26.0443 29.1341 26.4979 28.7102C27.2607 29.0721 28.1822 29.8977 28.2161 31.7939C28.2742 35.0436 28.9126 36.3202 33.2068 36.4945C37.5011 36.6684 38.3718 39.454 37.2691 43.7484C36.1664 48.0427 39.7643 51.1184 44.349 49.6094C44.3486 49.6087 44.9873 49.6668 44.8711 49.3186Z" fill="#5A4A66"></path></svg>